# xmcd
#
# Track frame offsets:
#	150
#	20527
#	35605
#	54360
#	72572
#	92572
#	111890
#	129467
#	148430
#	166505
#	182087
#	195832
#	203202
#	221610
#	238990
#	261092
#	284460
#	304760
#	321315
#	340345
#
# Disc length: 4751 seconds
#
# Revision: 1
# Processed by: cddbd v1.5.2PL0 Copyright (c) Steve Scherf et al.
# Submitted via: EasyCDDAExtractor 15.3.0.1
#
DISCID=32128d14
DTITLE=Rocio Jurado - Solo Lo Mejor - 20 Exitos
DYEAR=2001
DGENRE=Latin
TTITLE0=Se Nos Rompio El Amor
TTITLE1=Rocio De Luna Blanca
TTITLE2=Amor De Noche
TTITLE3=Necesito Estar Sola
TTITLE4=Este Noche Gano Yo
TTITLE5=Perros Perdidos
TTITLE6=Como Siempre Que No Estas
TTITLE7=Vibro
TTITLE8=Mi Bruto Bello
TTITLE9=Distante
TTITLE10=Compañero Mio
TTITLE11=Cancion Del Fuego Fatuo
TTITLE12=Donde Estas Amor
TTITLE13=Paloma Brava
TTITLE14=Aprendiz De Hombre
TTITLE15=Punto De Partida
TTITLE16=Eres Unico
TTITLE17=No Sigas
TTITLE18=Tan Solo Una Mujer
TTITLE19=Quien Te Crees Tu
EXTD=
EXTT0=
EXTT1=
EXTT2=
EXTT3=
EXTT4=
EXTT5=
EXTT6=
EXTT7=
EXTT8=
EXTT9=
EXTT10=
EXTT11=
EXTT12=
EXTT13=
EXTT14=
EXTT15=
EXTT16=
EXTT17=
EXTT18=
EXTT19=
PLAYORDER=
